<?xml version="1.0" standalone="no"?>
<!DOCTYPE svg PUBLIC "-//W3C//DTD SVG 20010904//EN"
 "http://www.w3.org/TR/2001/REC-SVG-20010904/DTD/svg10.dtd">
<svg version="1.0" xmlns="http://www.w3.org/2000/svg"
 width="512.000000pt" height="512.000000pt" viewBox="0 0 512.000000 512.000000"
 preserveAspectRatio="xMidYMid meet">

<g transform="translate(0.000000,512.000000) scale(0.100000,-0.100000)"
fill="#000000" stroke="none">
<path d="M272 5099 c-28 -14 -51 -36 -67 -64 l-25 -42 0 -2433 0 -2433 25 -43
c16 -28 39 -49 68 -63 l43 -21 2245 0 c2167 0 2245 1 2285 19 23 10 52 34 65
52 l24 34 3 863 c2 843 2 863 -18 901 -10 21 -36 50 -57 62 -36 23 -48 24
-240 27 -112 2 -203 7 -203 11 0 4 18 58 40 120 23 65 40 130 40 155 0 50 -29
99 -77 131 -49 34 -378 148 -403 140 -54 -17 -77 -83 -42 -123 9 -10 46 -30
82 -42 36 -13 66 -24 68 -25 1 -1 -10 -34 -24 -73 -23 -60 -29 -70 -44 -62 -9
5 -289 108 -622 229 -427 156 -617 221 -646 221 -34 0 -49 -6 -76 -32 -29 -29
-51 -81 -164 -393 -71 -198 -133 -370 -136 -382 -10 -33 11 -99 39 -121 13
-11 85 -41 160 -68 l135 -49 0 -52 c0 -29 -4 -53 -9 -53 -5 0 -83 27 -174 60
-90 33 -174 60 -186 60 -32 0 -71 -43 -71 -78 0 -54 25 -69 235 -146 l200 -73
3 -116 c1 -64 -1 -117 -4 -117 -17 0 -650 234 -661 244 -15 15 535 1529 558
1534 8 1 250 -83 538 -188 288 -104 538 -190 556 -190 40 0 65 26 65 69 0 55
-14 66 -135 111 l-115 42 0 607 c0 653 0 644 -53 669 -26 13 -27 16 -27 97 0
81 1 84 27 97 51 24 53 35 53 418 0 229 -4 369 -11 395 -16 57 -46 95 -93 116
-39 18 -101 19 -1586 19 l-1545 0 -43 -21z m1043 -2320 c534 -187 974 -344
978 -348 5 -5 -29 -111 -75 -237 l-84 -229 -510 -5 c-573 -6 -549 -2 -602 -82
l-27 -42 -3 -536 c-2 -351 1 -546 8 -564 5 -15 23 -35 40 -44 29 -17 30 -18
30 -99 0 -79 -1 -82 -27 -95 -45 -22 -53 -50 -53 -206 l0 -142 -327 2 -328 3
-3 1483 c-1 815 1 1482 6 1482 4 0 444 -153 977 -341z m2077 -511 c325 -118
558 -208 558 -215 0 -7 -7 -31 -16 -53 l-16 -40 -396 0 c-383 0 -397 -1 -440
-21 -65 -32 -92 -79 -100 -177 l-7 -80 -195 70 c-107 39 -196 71 -198 73 -7 6
232 645 242 645 6 0 262 -91 568 -202z m273 -789 c49 -45 97 -45 150 1 36 31
55 32 55 4 0 -45 -28 -87 -118 -177 l-87 -87 -73 73 c-85 86 -99 123 -62 170
40 50 92 57 135 16z m-1705 11 c0 -5 -9 -32 -20 -60 -38 -96 -19 -190 46 -235
17 -11 177 -74 357 -139 l327 -119 0 -68 0 -69 -605 0 -605 0 0 350 0 350 250
0 c154 0 250 -4 250 -10z m2240 -925 l0 -125 -530 0 -530 0 0 125 0 125 530 0
530 0 0 -125z"/>
</g>
</svg>
